<svg xmlns="http://www.w3.org/2000/svg" width="200" height="200" fill="none" viewBox="0 0 200 200">
<!-- SVG created with Arrow, by QuiverAI (https://quiver.ai) -->
  <path d="m11.45 196c-0.29-0.32-0.13-0.73 0.16-1.36l13-26.58 12.34-24.63 17.84-39.58 24.32-48.78 20.9-51.38c0.2-0.43 0.95-0.43 1.16 0.02l6.74 14.24 6 13.04 11.04 24.17 3.02 6.74 2.98 6.19 7.93 16.81 8.97 21.27c0.73 1.74 0.23 2.8-0.16 3.14l-26.03 20.54-23.57 18.07-32.25 24.85-36.87 23.84-16.91 0.01c-0.3 0-0.55-0.31-0.61-0.62zm31.26-28.32 20.06-14.56 14.57-11.33 28.43-21.19 21.26-15.28c1.8-0.87 0.96-2.76 0.48-4l-27.4-60.71c-0.38-0.86-0.72-0.64-0.94-0.09l-18.56 38.47-14.15 30.93-15.25 35.19-8.31 20.66c-0.22 0.55-0.71 1.84-0.19 1.91z" fill="url(#paint0_linear_503_2081)"/>
  <path d="m142.9 134.8 11.09-9.26c0.75-0.57 1.3-0.64 1.51-0.06l8.25 18.95 8.12 17.95 15.73 33.07c0.32 0.68 0.14 1.09-0.2 1.09l-16.61-0.06-11.19-22.73-8.9-18.89-7.87-19.03c-0.28-0.68-0.31-0.74 0.07-1.03z" fill="url(#paint1_linear_503_2081)"/>
  <path d="m86.69 185 12.7-13.6c0.46-0.43 1.06-0.32 1.59 0.37l6.66 7.83 5.84 5.1c0.63 0.68 0.59 1.18 0.07 1.67l-10.07 9.9c-0.57 0.48-1.29 0.45-2.1 0.45h-4.12l-10.53-9.94c-0.62-0.51-0.71-1.08-0.04-1.78z" fill="url(#paint2_linear_503_2081)"/>
  <defs>
    <linearGradient id="paint0_linear_503_2081" x1="12.3" x2="148" y1="196.6" y2="108.4" gradientUnits="userSpaceOnUse">
      <stop stop-color="#F9E193" offset="0"/>
      <stop stop-color="#EDCB6A" offset=".4807"/>
      <stop stop-color="#F4D67A" offset="1"/>
    </linearGradient>
    <linearGradient id="paint1_linear_503_2081" x1="142.6" x2="188.4" y1="125.1" y2="195.8" gradientUnits="userSpaceOnUse">
      <stop stop-color="#E3C268" offset="0"/>
      <stop stop-color="#ECCF72" offset="1"/>
    </linearGradient>
    <linearGradient id="paint2_linear_503_2081" x1="86.22" x2="106.9" y1="171.1" y2="198.7" gradientUnits="userSpaceOnUse">
      <stop stop-color="#D9B661" offset="0"/>
      <stop stop-color="#F0D277" offset="1"/>
    </linearGradient>
  </defs>
</svg>